<svg viewBox="0 0 400 400" xmlns="http://www.w3.org/2000/svg">
  <defs>
    <linearGradient id="orangeGradient" x1="0%" y1="0%" x2="0%" y2="100%">
      <stop offset="0%" style="stop-color:#FF8C42;stop-opacity:1" />
      <stop offset="100%" style="stop-color:#FF5722;stop-opacity:1" />
    </linearGradient>
  </defs>
  <rect width="400" height="400" fill="#1a1a1a"/>
  <g transform="translate(100, 100)">
    <rect x="0" y="0" width="200" height="200" rx="45" ry="45" fill="url(#orangeGradient)"/>
    <path d="M 145 75 C 145 75 133 65 118 63 L 116 67 C 130 70 136 75 136 75 C 125 69 115 66 105 65 C 98 64 91 64 85 65 C 83 65 80 66 77 67 C 75 68 73 69 73 69 C 73 69 79 64 92 61 L 90 57 C 75 59 63 69 63 69 C 63 69 63 93 63 123 C 63 123 72 138 92 139 C 92 139 95 135 98 132 C 88 129 84 122 84 122 C 84 122 85 123 87 124 C 87 124 87 124 88 125 C 88 125 89 125 89 125 C 95 128 101 130 108 131 C 117 132 127 131 137 128 C 141 127 146 125 151 122 C 151 122 147 129 136 132 C 139 135 142 139 142 139 C 162 138 171 123 171 123 C 171 93 171 69 171 69 C 171 69 159 59 145 57 Z M 92 115 C 87 115 83 110 83 104 C 83 98 87 93 92 93 C 97 93 101 98 101 104 C 101 110 97 115 92 115 Z M 125 115 C 120 115 116 110 116 104 C 116 98 120 93 125 93 C 130 93 134 98 134 104 C 134 110 130 115 125 115 Z" fill="#1a1a1a"/>
  </g>
</svg>